<?xml version="1.0" standalone="no"?>
<svg xmlns:xlink="http://www.w3.org/1999/xlink" id="wave" style="transform:rotate(0deg); transition: 0.3s" viewBox="0 0 1440 270" version="1.1" xmlns="http://www.w3.org/2000/svg"><defs><linearGradient id="sw-gradient-0" x1="0" x2="0" y1="1" y2="0"><stop stop-color="rgba(37, 33, 228, 1)" offset="0%"/><stop stop-color="rgba(0, 0, 255, 0.658)" offset="100%"/></linearGradient></defs><path style="transform:translate(0, 0px); opacity:1" fill="url(#sw-gradient-0)" d="M0,108L48,94.5C96,81,192,54,288,76.5C384,99,480,171,576,171C672,171,768,99,864,58.5C960,18,1056,9,1152,27C1248,45,1344,90,1440,130.5C1536,171,1632,207,1728,198C1824,189,1920,135,2016,121.5C2112,108,2208,135,2304,148.5C2400,162,2496,162,2592,148.5C2688,135,2784,108,2880,99C2976,90,3072,99,3168,112.5C3264,126,3360,144,3456,148.5C3552,153,3648,144,3744,117C3840,90,3936,45,4032,49.5C4128,54,4224,108,4320,112.5C4416,117,4512,72,4608,76.5C4704,81,4800,135,4896,166.5C4992,198,5088,207,5184,202.5C5280,198,5376,180,5472,153C5568,126,5664,90,5760,103.5C5856,117,5952,180,6048,171C6144,162,6240,81,6336,72C6432,63,6528,126,6624,139.5C6720,153,6816,117,6864,99L6912,81L6912,270L6864,270C6816,270,6720,270,6624,270C6528,270,6432,270,6336,270C6240,270,6144,270,6048,270C5952,270,5856,270,5760,270C5664,270,5568,270,5472,270C5376,270,5280,270,5184,270C5088,270,4992,270,4896,270C4800,270,4704,270,4608,270C4512,270,4416,270,4320,270C4224,270,4128,270,4032,270C3936,270,3840,270,3744,270C3648,270,3552,270,3456,270C3360,270,3264,270,3168,270C3072,270,2976,270,2880,270C2784,270,2688,270,2592,270C2496,270,2400,270,2304,270C2208,270,2112,270,2016,270C1920,270,1824,270,1728,270C1632,270,1536,270,1440,270C1344,270,1248,270,1152,270C1056,270,960,270,864,270C768,270,672,270,576,270C480,270,384,270,288,270C192,270,96,270,48,270L0,270Z"/></svg>