<svg id="visual" viewBox="0 0 1200 600" width="1200" height="600" xmlns="http://www.w3.org/2000/svg" xmlns:xlink="http://www.w3.org/1999/xlink" version="1.1"><rect x="0" y="0" width="1200" height="600" fill="#002233"></rect><path d="M0 481L16.7 480.5C33.3 480 66.7 479 100 480.2C133.3 481.3 166.7 484.7 200 482.5C233.3 480.3 266.7 472.7 300 472.8C333.3 473 366.7 481 400 481.5C433.3 482 466.7 475 500 476.2C533.3 477.3 566.7 486.7 600 486.2C633.3 485.7 666.7 475.3 700 473.8C733.3 472.3 766.7 479.7 800 482C833.3 484.3 866.7 481.7 900 483C933.3 484.3 966.7 489.7 1000 487.7C1033.3 485.7 1066.7 476.3 1100 470.5C1133.3 464.7 1166.7 462.3 1183.3 461.2L1200 460L1200 601L1183.3 601C1166.7 601 1133.3 601 1100 601C1066.7 601 1033.3 601 1000 601C966.7 601 933.3 601 900 601C866.7 601 833.3 601 800 601C766.7 601 733.3 601 700 601C666.7 601 633.3 601 600 601C566.7 601 533.3 601 500 601C466.7 601 433.3 601 400 601C366.7 601 333.3 601 300 601C266.7 601 233.3 601 200 601C166.7 601 133.3 601 100 601C66.7 601 33.3 601 16.7 601L0 601Z" fill="#0878e1" stroke-linecap="round" stroke-linejoin="miter"></path></svg>